<!DOCTYPE svg PUBLIC "-//W3C//DTD SVG 1.1//EN" "http://www.w3.org/Graphics/SVG/1.1/DTD/svg11.dtd">
<!-- Uploaded to: SVG Repo, www.svgrepo.com, Transformed by: SVG Repo Mixer Tools -->
<svg version="1.1" id="designs" xmlns="http://www.w3.org/2000/svg" xmlns:xlink="http://www.w3.org/1999/xlink" width="800px" height="800px" viewBox="0 0 32 32" xml:space="preserve" fill="#000000">
<g id="SVGRepo_bgCarrier" stroke-width="0"/>
<g id="SVGRepo_tracerCarrier" stroke-linecap="round" stroke-linejoin="round"/>
<g id="SVGRepo_iconCarrier"> <style type="text/css"> .scienceandfiction_een{fill:#308b3a;} .scienceandfiction_twee{fill:#72c234;} </style> <path class="scienceandfiction_twee" d="M24,30h-1v-1h-5v-1h5v-2h-6v-1h6c0,0-0.05-1.52-0.14-2H16v-1h6.58c-0.25-0.74-1.08-2-1.08-2 H17v-1h3.65c-1.32-1.24-3.1-2-5.09-2C11.1,17,7.989,13.51,8,8.51C8.01,4,8,3,8,3h1v1h4v1H9v2h5v1H9v1c0,0.34,0.02,0.67,0.06,1H15v1 H9.21C9.37,11.74,10,13,10,13h5v1h-4.3c1.07,1.23,2.65,2,4.86,2c4.73,0,8.44,3.74,8.44,8.5C24,25,24,30,24,30z M16,19h-1v1h1V19z M15,22h-1v1h1V22z M16,25h-1v1h1V25z M17,28h-1v1h1V28z"/> <path class="scienceandfiction_een" d="M23.996,8.5c-0.003,4.924-3.243,8.498-7.712,8.498c-1.95,0-3.693,0.758-4.988,2.001H14v1 h-3.57c-0.432,0.601-0.778,1.273-1.02,2H13v1H9.143c-0.092,0.484-0.142,1.829-0.142,2H14v1H9c-0.001,0.683-0.002,1.381-0.002,2H15v1 H8.997c0,0.559,0.001,0.942,0.003,1H8c0,0,0.002-5,0.002-5.5c0-4.767,3.638-8.502,8.282-8.502c1.926,0,3.566-0.737,4.744-1.999H18 v-1h3.792c0.374-0.596,0.669-1.266,0.872-2H18v-1h4.881C22.955,9.52,23,9.52,23,9c0-0.16,0-0.929,0-1h-5V7h5 c0.001-0.683,0.001-1.381,0.002-2H16V4h7.003c0-0.559-0.001-0.942-0.003-1h1C24,3,24,3,23.996,8.5z M16,14h1v-1h-1V14z M17,10h-1v1 h1V10z M15,8h1V7h-1V8z M15,4h-1v1h1V4z"/> </g>
</svg>